<mxfile host="app.diagrams.net" modified="2023-07-01T03:07:19.956Z" agent="Mozilla/5.0 (Windows NT 10.0; Win64; x64) AppleWebKit/537.36 (KHTML, like Gecko) Chrome/114.0.0.0 Safari/537.36" etag="RECQ8HmQvH-o6lF8kTFE" version="21.5.2" type="github">
  <diagram name="第 1 页" id="4yqrQPNTFsZuoYltusxb">
    <mxGraphModel dx="954" dy="576" grid="1" gridSize="10" guides="1" tooltips="1" connect="1" arrows="1" fold="1" page="1" pageScale="1" pageWidth="827" pageHeight="1169" math="0" shadow="0">
      <root>
        <mxCell id="0" />
        <mxCell id="1" parent="0" />
        <mxCell id="BKCtC77yoE5Q9EcaV11N-6" value="核心问题" style="rounded=0;whiteSpace=wrap;html=1;horizontal=0;" vertex="1" parent="1">
          <mxGeometry x="40" y="240" width="40" height="80" as="geometry" />
        </mxCell>
        <mxCell id="BKCtC77yoE5Q9EcaV11N-7" value="方法" style="rounded=0;whiteSpace=wrap;html=1;horizontal=0;" vertex="1" parent="1">
          <mxGeometry x="40" y="360" width="40" height="80" as="geometry" />
        </mxCell>
        <mxCell id="BKCtC77yoE5Q9EcaV11N-8" value="解决什么问题？&lt;br&gt;对象是谁？" style="whiteSpace=wrap;html=1;" vertex="1" parent="1">
          <mxGeometry x="100" y="240" width="120" height="80" as="geometry" />
        </mxCell>
        <mxCell id="BKCtC77yoE5Q9EcaV11N-9" value="问题分类：&lt;br&gt;搞不搞？&lt;br&gt;先搞啥、后搞啥？&lt;br&gt;怎么搞" style="whiteSpace=wrap;html=1;" vertex="1" parent="1">
          <mxGeometry x="100" y="360" width="120" height="80" as="geometry" />
        </mxCell>
        <mxCell id="BKCtC77yoE5Q9EcaV11N-10" value="根据目标&lt;br&gt;找到关键要素" style="whiteSpace=wrap;html=1;" vertex="1" parent="1">
          <mxGeometry x="240" y="240" width="120" height="80" as="geometry" />
        </mxCell>
        <mxCell id="BKCtC77yoE5Q9EcaV11N-11" value="值不值、难不难；&lt;br&gt;基于指标体系拆解过程指标；&lt;br&gt;基于业务理解的维度下钻" style="whiteSpace=wrap;html=1;" vertex="1" parent="1">
          <mxGeometry x="240" y="360" width="120" height="80" as="geometry" />
        </mxCell>
        <mxCell id="BKCtC77yoE5Q9EcaV11N-12" value="指标映射" style="whiteSpace=wrap;html=1;" vertex="1" parent="1">
          <mxGeometry x="380" y="240" width="120" height="80" as="geometry" />
        </mxCell>
        <mxCell id="BKCtC77yoE5Q9EcaV11N-13" value="要素与指标对应表，选择相关性最高的指标" style="whiteSpace=wrap;html=1;" vertex="1" parent="1">
          <mxGeometry x="380" y="360" width="120" height="80" as="geometry" />
        </mxCell>
        <mxCell id="BKCtC77yoE5Q9EcaV11N-14" value="如何设定阈值" style="whiteSpace=wrap;html=1;" vertex="1" parent="1">
          <mxGeometry x="520" y="240" width="120" height="80" as="geometry" />
        </mxCell>
        <mxCell id="BKCtC77yoE5Q9EcaV11N-15" value="基于经验值&lt;br&gt;基于目标值&lt;br&gt;基于统计分布（平均值、CDF、PDF）" style="whiteSpace=wrap;html=1;" vertex="1" parent="1">
          <mxGeometry x="520" y="360" width="120" height="80" as="geometry" />
        </mxCell>
        <mxCell id="BKCtC77yoE5Q9EcaV11N-16" value="展示各层的分布" style="whiteSpace=wrap;html=1;" vertex="1" parent="1">
          <mxGeometry x="660" y="240" width="120" height="80" as="geometry" />
        </mxCell>
        <mxCell id="BKCtC77yoE5Q9EcaV11N-17" value="关键指标展示&lt;br&gt;阈值说明" style="whiteSpace=wrap;html=1;" vertex="1" parent="1">
          <mxGeometry x="660" y="360" width="120" height="80" as="geometry" />
        </mxCell>
        <mxCell id="BKCtC77yoE5Q9EcaV11N-18" value="明确目标" style="rounded=1;whiteSpace=wrap;html=1;" vertex="1" parent="1">
          <mxGeometry x="100" y="190" width="120" height="30" as="geometry" />
        </mxCell>
        <mxCell id="BKCtC77yoE5Q9EcaV11N-19" value="寻找关键要素" style="rounded=1;whiteSpace=wrap;html=1;" vertex="1" parent="1">
          <mxGeometry x="240" y="190" width="120" height="30" as="geometry" />
        </mxCell>
        <mxCell id="BKCtC77yoE5Q9EcaV11N-20" value="选择指标" style="rounded=1;whiteSpace=wrap;html=1;" vertex="1" parent="1">
          <mxGeometry x="380" y="190" width="120" height="30" as="geometry" />
        </mxCell>
        <mxCell id="BKCtC77yoE5Q9EcaV11N-21" value="设定阈值" style="rounded=1;whiteSpace=wrap;html=1;" vertex="1" parent="1">
          <mxGeometry x="520" y="190" width="120" height="30" as="geometry" />
        </mxCell>
        <mxCell id="BKCtC77yoE5Q9EcaV11N-22" value="统计描述" style="rounded=1;whiteSpace=wrap;html=1;" vertex="1" parent="1">
          <mxGeometry x="660" y="190" width="120" height="30" as="geometry" />
        </mxCell>
      </root>
    </mxGraphModel>
  </diagram>
</mxfile>
